<svg xmlns="http://www.w3.org/2000/svg" xmlns:xlink="http://www.w3.org/1999/xlink" xmlns:serif="http://www.serif.com/" width="100%" height="100%" viewBox="0 0 512 512" xml:space="preserve" style="fill-rule:evenodd;clip-rule:evenodd;stroke-linejoin:round;stroke-miterlimit:2;">    <g transform="matrix(4.16667,0,0,4.16667,-335.895,13.7306)">        <path d="M114.554,72.76C109.433,66.573 106.343,58.635 106.343,49.987C106.343,30.275 122.38,14.238 142.084,14.238C152.004,14.238 160.987,18.302 167.47,24.844L176.914,15.455C168.012,6.487 155.691,0.921 142.084,0.921C115.029,0.921 93.021,22.931 93.021,49.987C93.021,63.665 98.655,76.046 107.714,84.955L114.552,72.766L114.554,72.76Z" style="fill:rgb(234,120,35);fill-rule:nonzero;"></path>    </g>    <g transform="matrix(4.16667,0,0,4.16667,-335.895,13.7306)">        <path d="M159.107,81.37C154.034,84.13 148.253,85.732 142.084,85.732C135.917,85.732 130.112,84.163 125.04,81.401C125.038,81.4 125.035,81.399 125.03,81.397L125.028,81.403L118.571,93.037C118.573,93.041 118.577,93.043 118.581,93.045C125.566,96.873 133.576,99.053 142.084,99.053C150.599,99.053 158.592,96.852 165.57,93.026L165.569,93.023L159.107,81.37Z" style="fill:rgb(234,120,35);fill-rule:nonzero;"></path>    </g>    <g transform="matrix(4.16667,0,0,4.16667,-335.895,13.7306)">        <path d="M125.03,81.397L142.082,50.67L159.101,81.364L159.107,81.37C159.11,81.369 159.113,81.366 159.117,81.364C161.397,80.119 163.547,78.662 165.49,76.969C165.49,76.969 167.907,74.859 169.603,72.771L169.596,72.762L142.082,23.669L114.554,72.76C114.556,72.762 114.557,72.763 114.561,72.766C117.462,76.268 121.014,79.205 125.03,81.397Z" style="fill:rgb(8,162,221);fill-rule:nonzero;"></path>    </g>    <g transform="matrix(4.16667,0,0,4.16667,-335.895,13.7306)">        <path d="M107.714,84.955L107.708,84.966L90.602,115.488L106.118,115.488L118.567,93.045L118.571,93.037C114.589,90.852 110.938,88.128 107.724,84.966C107.722,84.964 107.717,84.959 107.714,84.955Z" style="fill:rgb(8,162,221);fill-rule:nonzero;"></path>    </g>    <g transform="matrix(4.16667,0,0,4.16667,-335.895,13.7306)">        <path d="M193.549,115.488L176.453,84.99C174.222,87.233 171.314,89.375 171.314,89.375C169.503,90.725 167.578,91.93 165.585,93.019C165.58,93.021 165.576,93.023 165.57,93.026L178.033,115.488L193.549,115.488Z" style="fill:rgb(8,162,221);fill-rule:nonzero;"></path>    </g>    <g transform="matrix(4.16667,0,0,4.16667,-335.895,13.7306)">        <path d="M171.314,89.375C171.314,89.375 174.222,87.233 176.453,84.99L176.45,84.983L169.603,72.771C167.907,74.859 165.49,76.969 165.49,76.969C163.547,78.662 161.397,80.119 159.117,81.364C159.113,81.366 159.11,81.369 159.107,81.37L165.569,93.023L165.57,93.026C165.576,93.023 165.58,93.021 165.585,93.019C167.578,91.93 169.503,90.725 171.314,89.375Z" style="fill:rgb(1,99,159);fill-rule:nonzero;"></path>    </g>    <g transform="matrix(4.16667,0,0,4.16667,-335.895,13.7306)">        <path d="M125.03,81.397C121.014,79.205 117.462,76.268 114.561,72.766C114.557,72.763 114.556,72.762 114.554,72.76L114.552,72.766L107.714,84.955C107.717,84.959 107.722,84.964 107.724,84.966C110.938,88.128 114.589,90.852 118.571,93.037L125.028,81.403L125.03,81.397Z" style="fill:rgb(1,99,159);fill-rule:nonzero;"></path>    </g></svg>